<svg width="110" height="76" viewBox="0 0 110 76" fill="none" xmlns="http://www.w3.org/2000/svg">
<path d="M2.5 73.0005C20.8333 68.0005 67.9 58.8005 109.5 62.0005" stroke="#5E5E5E" stroke-width="5"/>
<path d="M55.4994 25.5C53.4994 13.9 59.5 5 62.5 2.5L72 4L74 5L79.5 1L82.9996 0.5L88.5 1L94.4996 2.5L99 5L102 9V14V20.5L101 25.5L99.4996 31.5L98.5 34L96.5 36L93.5 34.5L88.5 31C84.9 38.6 73.3329 40.3333 68.4996 39.5C60.0996 37.1 56.3328 29.1667 55.4994 25.5Z" fill="#F9B23C"/>
<path d="M46.4995 47.5016C42.8995 45.1016 44.9995 43.1683 46.4995 42.5016C49 40.5001 56.9996 40.6152 61.5 41.5016C64.5 42.0923 61.1667 46.3349 60 47.5016C56.6556 50.8459 54.7801 52.8917 54 52.5016C52.4 51.7016 48.333 48.8349 46.4995 47.5016Z" fill="black"/>
<path d="M32 36.5003C33.6667 35.1669 37.8 32.9003 41 34.5003C39 31.6668 34.4 28.0999 32 36.5003Z" fill="black"/>
<path d="M65.0006 33.1696C66.8535 32.1103 71.2879 30.5108 74.2017 32.5868C72.6644 29.4779 68.672 25.242 65.0006 33.1696Z" fill="black"/>
<path d="M22.5 21.4998C22.8333 24.4998 22.4 31.5998 18 35.9998C16.3333 37.8332 12.3 41.5998 9.5 41.9998C8 41.9998 4.6 39.3998 3 28.9998L1 17.4998C1.16125 15.726 2.60184 11.768 7.04259 9.70141M7.04259 9.70141C7.19166 9.63204 7.34411 9.56479 7.5 9.49984C12.3 7.49984 9.19506 8.80088 7.04259 9.70141ZM19.5 4.99921C21.6667 4.83254 26.3 5.19921 27.5 7.99921C31.1667 5.99901 40.6 1.99861 49 1.99861C53.8333 1.66568 65.6 1.79969 74 4.99921C75.1667 3.33283 78.9 0.199929 84.5 0.999343C89.6667 1.16623 100.4 3 102 9C102.167 14.5 101.9 26.8 99.5 32C99 34.3333 97 38 93 34C88.8333 31.6667 80.7 25.1 81.5 17.5" stroke="black"/>
<path d="M10 8.5C12.5 7.33333 18 5 20 5" stroke="black"/>
<path d="M49.5 43.0009C52.8333 42.6676 59.5 42.4009 59.5 44.0009" stroke="white" stroke-width="0.5"/>
<path d="M21.9989 63.5C21.7378 64.8927 21.7221 66.9583 22.5645 68.5M22.5645 68.5C23.3351 69.9102 24.8236 70.8822 27.4989 70.5C30.3323 70.6667 35.3991 69.3 32.9991 62.5C33.1657 65.1667 34.4991 70.1 38.4991 68.5C40.4991 67 43.8991 62.9 41.4991 58.5C39.9991 56.1667 35.6991 51.4 30.4991 51C28.3324 51.1667 22.9991 52.4 18.9991 56C16.3324 57.8333 11.7991 62.9 14.9991 68.5C16.5424 70.1667 20.2162 72.5 22.5645 68.5Z" stroke="black"/>
<path d="M76.1005 59.5C75.8393 60.8927 75.8237 62.9583 76.6661 64.5M76.6661 64.5C77.4367 65.9102 78.9252 66.8822 81.6005 66.5C84.4338 66.6667 89.5006 65.3 87.1006 58.5C87.2673 61.1667 88.6006 66.1 92.6006 64.5C94.6006 63 98.0006 58.9 95.6006 54.5C94.1006 52.1667 89.8006 47.4 84.6006 47C82.434 47.1667 77.1006 48.4 73.1006 52C70.434 53.8333 65.9006 58.9 69.1006 64.5C70.644 66.1667 74.3177 68.5 76.6661 64.5Z" stroke="black"/>
</svg>
