<svg width="652" height="233" viewBox="0 0 652 233" fill="none" xmlns="http://www.w3.org/2000/svg">
<path d="M18.3414 156.496H24.1894C27.6294 156.496 30.6681 155.177 33.3054 152.54C35.9428 149.788 37.9494 146.463 39.3254 142.564L75.6174 36.44H82.8414L119.649 147.724C121.599 153.572 124.981 156.496 129.797 156.496H136.677V162H76.3054V156.496H88.6894C90.0654 156.496 91.1548 155.98 91.9574 154.948C92.8748 153.801 93.3334 152.483 93.3334 150.992C93.3334 149.731 92.9894 148.068 92.3014 146.004L86.7974 129.492H50.6774L47.0654 139.984C45.8041 143.195 45.1734 146.119 45.1734 148.756C45.1734 150.82 45.9761 152.655 47.5814 154.26C49.3014 155.751 51.4801 156.496 54.1174 156.496H62.2014V162H18.3414V156.496ZM52.9134 123.128H84.7334L69.0814 75.828L52.9134 123.128ZM151.109 156.496H163.149C164.755 156.496 165.844 156.209 166.417 155.636C166.991 154.948 167.277 153.859 167.277 152.368V49.168C167.277 47.5627 166.991 46.4733 166.417 45.9C165.844 45.3267 164.755 45.04 163.149 45.04H151.109V39.536H215.093C224.611 39.536 233.325 42.116 241.237 47.276C249.149 52.3213 255.399 59.4307 259.985 68.604C264.687 77.6627 267.037 88.04 267.037 99.736C267.037 111.432 264.687 122.039 259.985 131.556C255.399 141.073 249.092 148.527 241.065 153.916C233.153 159.305 224.496 162 215.093 162H151.109V156.496ZM212.169 156.496C219.508 156.496 225.585 153.973 230.401 148.928C235.332 143.768 237.797 136.315 237.797 126.568V74.968C237.797 65.2213 235.332 57.8253 230.401 52.78C225.585 47.62 219.508 45.04 212.169 45.04H196.861C195.371 45.04 194.281 45.3267 193.593 45.9C193.02 46.4733 192.733 47.5627 192.733 49.168V152.368C192.733 153.859 193.02 154.948 193.593 155.636C194.281 156.209 195.371 156.496 196.861 156.496H212.169ZM338.612 165.096C329.783 165.096 321.412 162.057 313.5 155.98C305.703 149.903 299.453 141.933 294.752 132.072C290.051 122.096 287.7 111.661 287.7 100.768C287.7 89.8747 290.051 79.4973 294.752 69.636C299.453 59.66 305.703 51.6333 313.5 45.556C321.412 39.4787 329.783 36.44 338.612 36.44C347.441 36.44 355.755 39.4787 363.552 45.556C371.464 51.6333 377.771 59.66 382.472 69.636C387.173 79.4973 389.524 89.8747 389.524 100.768C389.524 111.661 387.173 122.096 382.472 132.072C377.771 141.933 371.464 149.903 363.552 155.98C355.755 162.057 347.441 165.096 338.612 165.096ZM338.612 159.592C345.607 159.592 350.939 157.069 354.608 152.024C358.392 146.864 360.284 138.379 360.284 126.568V74.968C360.284 63.1573 358.392 54.7293 354.608 49.684C350.939 44.524 345.607 41.944 338.612 41.944C331.617 41.944 326.228 44.524 322.444 49.684C318.775 54.7293 316.94 63.1573 316.94 74.968V126.568C316.94 138.379 318.775 146.864 322.444 152.024C326.228 157.069 331.617 159.592 338.612 159.592ZM408.773 156.496H420.813C422.419 156.496 423.508 156.209 424.081 155.636C424.655 154.948 424.941 153.859 424.941 152.368V49.168C424.941 47.5627 424.655 46.4733 424.081 45.9C423.508 45.3267 422.419 45.04 420.813 45.04H408.773V39.536H470.005C478.032 39.536 485.141 40.912 491.333 43.664C497.64 46.3013 502.513 50.0853 505.953 55.016C509.508 59.832 511.285 65.336 511.285 71.528C511.285 77.8347 509.508 83.4533 505.953 88.384C502.513 93.3147 497.64 97.2133 491.333 100.08C485.141 102.832 478.032 104.208 470.005 104.208H450.397V152.368C450.397 153.859 450.684 154.948 451.257 155.636C451.945 156.209 453.035 156.496 454.525 156.496H469.661V162H408.773V156.496ZM467.425 98.704C473.388 98.704 477.573 96.296 479.981 91.48C482.504 86.664 483.765 80.0133 483.765 71.528C483.765 63.1573 482.561 56.6787 480.153 52.092C477.745 47.3907 473.503 45.04 467.425 45.04H454.525C453.035 45.04 451.945 45.3267 451.257 45.9C450.684 46.4733 450.397 47.5627 450.397 49.168V98.704H467.425ZM551.559 156.496H565.319C566.924 156.496 568.014 156.209 568.587 155.636C569.16 154.948 569.447 153.859 569.447 152.368V50.888C569.447 49.0533 568.874 47.62 567.727 46.588C566.58 45.556 565.032 45.04 563.083 45.04C557.694 45.04 552.763 48.0213 548.291 53.984C543.819 59.832 540.494 66.712 538.315 74.624C537.054 78.8667 536.136 82.4787 535.563 85.46C535.104 88.3267 534.818 90.104 534.703 90.792H529.199L530.575 39.536H633.775L635.151 90.792H629.647C629.532 90.104 629.188 88.3267 628.615 85.46C628.156 82.4787 627.296 78.8667 626.035 74.624C623.856 66.712 620.531 59.832 616.059 53.984C611.587 48.0213 606.656 45.04 601.267 45.04C599.318 45.04 597.77 45.556 596.623 46.588C595.476 47.62 594.903 49.0533 594.903 50.888V152.368C594.903 153.859 595.19 154.948 595.763 155.636C596.451 156.209 597.54 156.496 599.031 156.496H612.791V162H551.559V156.496Z" fill="white"/>
</svg>
